<?xml version="1.0" encoding="iso-8859-1"?>
<!-- Generator: Adobe Illustrator 19.0.0, SVG Export Plug-In . SVG Version: 6.00 Build 0)  -->
<svg version="1.1" id="Layer_1" xmlns="http://www.w3.org/2000/svg" xmlns:xlink="http://www.w3.org/1999/xlink" x="0px" y="0px"
	 viewBox="0 0 512 512" style="enable-background:new 0 0 512 512;" xml:space="preserve">
<g>
	<g>
		<path d="M458.248,237.292c2.721-15.309,1.19-30.449-4.253-45.077c-12.418-33.34-43.375-56.983-78.757-60.215
			c-25.005-2.381-49.499,4.932-68.38,19.902C288.488,105.804,242.561,74.336,190,74.676
			c-63.787,0.51-119.069,51.199-122.811,113.116c-0.85,14.628,0.852,28.916,5.274,42.694C30.278,240.521,0,276.923,0,320.298
			c0,26.025,15.99,64.129,51.2,86.752c23.474,15.138,62.937,27.725,118.9,4.422c9.866,9.696,31.809,25.686,67.359,25.686
			c32.149,0,52.221-13.778,62.256-23.644c23.813,20.241,39.803,23.813,64.298,23.813c15.478,0,42.865-7.825,56.643-28.404
			C473.898,407.05,512,370.48,512,320.47C512,284.92,490.736,252.601,458.248,237.292z M415.893,387.487h-8.675l-2.891,6.294
			c-7.654,16.5-30.789,22.113-40.314,22.113c-23.474,0-34.531-3.401-57.834-25.344l-9.356-8.846l-6.972,10.375
			c-0.169,0.34-15.309,23.303-52.39,23.303c-36.572,0-54.433-21.264-56.303-23.644l-5.274-6.634l-7.654,3.572
			c-50.859,23.303-85.56,12.928-105.632,0c-27.216-17.35-41.505-47.797-41.505-68.72c0-36.741,28.577-67.189,66.678-70.761
			l14.969-1.36l-6.124-13.607c-6.465-14.459-9.356-29.597-8.335-45.417c3.062-50.859,48.818-92.704,101.722-93.045
			c0.34,0,0.51,0,0.85,0c47.968,0,90.152,32.659,100.358,77.905l4.763,20.922l13.778-16.33c15.309-18.2,38.953-27.725,63.277-25.344
			c27.385,2.552,51.201,20.752,60.726,46.437c4.932,13.268,5.443,27.046,1.531,40.995l-2.722,9.696l9.525,3.401
			c28.916,10.206,48.478,37.081,48.478,66.678C490.567,359.76,459.779,387.487,415.893,387.487z"/>
	</g>
</g>
<g>
	<g>
		<path d="M291.377,299.033c-2.552-4.422-6.634-8.504-12.077-12.077c-5.443-3.572-14.628-7.996-27.556-12.928v-29.258
			c10.887,1.021,21.433,3.572,31.809,7.825l9.356-23.303c-12.247-5.443-26.025-8.504-41.164-9.185v-14.799h-13.607v15.138
			c-13.437,1.191-23.984,5.103-31.468,11.227c-7.484,6.124-11.227,13.949-11.227,23.644c0,8.846,2.722,16.33,8.165,22.453
			c5.443,6.124,14.799,11.737,27.896,16.84l6.634,2.552v30.789c-6.463-0.51-13.607-1.7-21.772-3.912
			c-7.994-2.041-14.968-4.593-20.752-7.484v26.196c12.078,5.272,26.367,8.165,42.525,8.504v19.902h13.607v-20.412
			c13.607-1.36,24.324-5.103,31.978-11.566c7.654-6.293,11.397-14.799,11.397-25.344
			C295.123,308.051,293.761,302.948,291.377,299.033z M238.14,267.908c-4.593-1.872-7.825-3.913-9.866-5.784
			s-3.062-4.253-3.062-7.144c0-5.613,4.251-9.015,12.928-10.375V267.908z M251.577,327.103v-24.834
			c4.593,2.041,7.994,4.082,10.206,5.953c2.21,2.041,3.401,4.422,3.401,7.144C265.185,321.66,260.592,325.572,251.577,327.103z"/>
	</g>
</g>
<g>
</g>
<g>
</g>
<g>
</g>
<g>
</g>
<g>
</g>
<g>
</g>
<g>
</g>
<g>
</g>
<g>
</g>
<g>
</g>
<g>
</g>
<g>
</g>
<g>
</g>
<g>
</g>
<g>
</g>
</svg>
